#!OML:ASF E:\I on waltz\AllaLogoMonkeySwing\Project 1\Capture day 1\Session 1\Subject1.ASF
:FULLY-SPECIFIED
:DEGREES
1200
root 0.861691 17.669 -25.3044 3.88747 5.37258 -0.249775
lowerback 9.37685 2.43603 -2.99767
upperback 1.33038 2.9745 0.959506
thorax -4.07383 1.5249 2.29969
lowerneck -2.35565 13.295 7.69711
upperneck 8.74746 18.0192 -6.22059
head 4.26109 8.91063 -2.1061
rclavicle -3.72721e-016 -1.92821e-014
rhumerus -33.9843 -18.5374 -73.3363
rradius 32.8438
rwrist -0.495718
rhand -3.8259 -396.842
rfingers 7.12502
rthumb 21.9211 -65.6199
lclavicle -3.72721e-016 -1.92821e-014
lhumerus -40.8958 19.685 77.8334
lradius 43.8233
lwrist -1.02986
lhand -7.79562 -12.1449
lfingers 7.12502
lthumb 18.1055 17.0325
rfemur -12.0502 -1.81129 19.7223
rtibia 31.6934
rfoot -21.1227 -11.4019
rtoes 16.4439
lfemur -11.5915 -0.431183 -21.7228
ltibia 28.2432
lfoot -22.267 -2.41003
ltoes -28.4291
1201
root 0.865629 17.6691 -25.3008 3.89071 5.30583 -0.174909
lowerback 9.32217 2.43962 -3.08147
upperback 1.30176 2.97033 0.914328
thorax -4.07478 1.52418 2.30174
lowerneck -2.66197 13.4096 7.41184
upperneck 9.01408 18.1503 -5.88379
head 4.34444 8.97059 -1.93126
rclavicle 5.09386e-014 -1.53064e-014
rhumerus -33.9488 -18.2751 -73.4688
rradius 33.0383
rwrist -0.739305
rhand -3.95353 -396.739
rfingers 7.12502
rthumb 21.7986 -65.5313
lclavicle 5.09386e-014 -1.53064e-014
lhumerus -40.8743 19.458 77.8749
lradius 43.934
lwrist -0.878668
lhand -7.79729 -12.1987
lfingers 7.12502
lthumb 18.1039 16.9787
rfemur -12.0207 -1.82014 19.6159
rtibia 31.6861
rfoot -21.1982 -11.274
rtoes 16.3495
lfemur -11.5636 -0.497376 -21.8216
ltibia 28.2398
lfoot -22.2582 -2.27419
ltoes -28.3733
1202
root 0.868963 17.6664 -25.2988 3.87626 5.25776 -0.190859
lowerback 9.28794 2.44513 -3.07601
upperback 1.2667 2.9778 0.886673
thorax -4.09099 1.52827 2.26942
lowerneck -2.08543 13.3216 7.41896
upperneck 8.24371 18.0383 -6.03812
head 4.02276 8.9309 -2.05597
rclavicle -4.47266e-016 8.15017e-015
rhumerus -33.9505 -18.0503 -73.5907
rradius 33.1923
rwrist -0.897052
rhand -4.20739 -396.489
rfingers 7.12502
rthumb 21.5548 -65.3097
lclavicle -4.47266e-016 8.15017e-015
lhumerus -40.853 19.2925 77.8791
lradius 44.0619
lwrist -0.805608
lhand -7.8178 -12.1466
lfingers 7.12502
lthumb 18.0841 17.0327
rfemur -12.0192 -1.80961 19.6179
rtibia 31.6949
rfoot -21.2571 -11.3002
rtoes 15.8692
lfemur -11.5357 -0.51666 -21.813
ltibia 28.221
lfoot -22.2301 -2.2428
ltoes -27.6208
1203
root 0.871304 17.6633 -25.2987 3.82684 5.20459 -0.219715
lowerback 9.28722 2.44447 -3.08165
upperback 1.22996 2.97496 0.860641
thorax -4.12761 1.52768 2.24505
lowerneck -1.95222 13.2774 7.63336
upperneck 8.17779 17.9963 -6.26601
head 4.01845 8.91115 -2.16311
rclavicle -9.81499e-015 1.05356e-014
rhumerus -33.9627 -17.9157 -73.6908
rradius 33.3258
rwrist -0.90403
rhand -4.25803 -396.366
rfingers 7.12502
rthumb 21.5062 -65.1918
lclavicle -9.81499e-015 1.05356e-014
lhumerus -40.8533 19.1477 77.8402
lradius 44.1707
lwrist -0.741848
lhand -7.94241 -12.0908
lfingers 7.12502
lthumb 17.9643 17.0996
rfemur -11.9814 -1.80106 19.6443
rtibia 31.6757
rfoot -21.1565 -11.4062
rtoes 15.3264
lfemur -11.4865 -0.5038 -21.7888
ltibia 28.2395
lfoot -22.2397 -2.2631
ltoes -27.088
1204
root 0.873332 17.6589 -25.3001 3.73658 5.12764 -0.265751
lowerback 9.35917 2.4383 -3.07146
upperback 1.20278 2.96503 0.855839
thorax -4.19464 1.52369 2.23225
lowerneck -2.0398 13.2946 7.91942
upperneck 8.4449 18.0489 -6.57741
head 4.17238 8.92822 -2.26722
rclavicle 1.94809e-014 -2.18663e-015
rhumerus -33.9217 -17.8169 -73.7209
rradius 33.4356
rwrist -1.1928
rhand -4.02934 -396.432
rfingers 7.12502
rthumb 21.7258 -65.2327
lclavicle 1.94809e-014 -2.18663e-015
lhumerus -40.8653 19.0222 77.8159
lradius 44.2379
lwrist -0.633347
lhand -8.10743 -12.0976
lfingers 7.12502
lthumb 17.8055 17.1072
rfemur -11.8951 -1.76957 19.6797
rtibia 31.6555
rfoot -21.0519 -11.3474
rtoes 15.5655
lfemur -11.3944 -0.509894 -21.747
ltibia 28.2637
lfoot -22.2583 -2.2421
ltoes -26.9387
1205
root 0.875804 17.6574 -25.3012 3.69253 5.05629 -0.295768
lowerback 9.40547 2.43899 -3.06506
upperback 1.1703 2.96497 0.858369
thorax -4.25416 1.5247 2.22874
lowerneck -2.14174 13.3273 8.05659
upperneck 8.63078 18.1148 -6.79194
head 4.2829 8.95162 -2.32584
rclavicle -2.90723e-015 -1.67973e-014
rhumerus -33.8494 -17.6922 -73.7244
rradius 33.4391
rwrist -1.46874
rhand -4.03409 -396.433
rfingers 7.12502
rthumb 21.7212 -65.2343
lclavicle -2.90723e-015 -1.67973e-014
lhumerus -40.8429 18.9716 77.8231
lradius 44.2679
lwrist -0.561814
lhand -8.14433 -12.1519
lfingers 7.12502
lthumb 17.77 17.0562
rfemur -11.8652 -1.66355 19.6846
rtibia 31.667
rfoot -21.0912 -11.2196
rtoes 16.3755
lfemur -11.3461 -0.439974 -21.7245
ltibia 28.2606
lfoot -22.2606 -2.27275
ltoes -26.7944
1206
root 0.879372 17.6598 -25.3011 3.69634 5.01344 -0.271264
lowerback 9.37477 2.47815 -3.09821
upperback 1.15724 3.01347 0.836256
thorax -4.2543 1.54924 2.21863
lowerneck -2.32673 13.3298 7.94685
upperneck 8.76336 18.1098 -6.692
head 4.33395 8.94388 -2.26556
rclavicle 4.39563e-014 5.26779e-015
rhumerus -34.1128 -17.7722 -73.6894
rradius 33.7171
rwrist -1.37393
rhand -4.09676 -396.364
rfingers 7.12502
rthumb 21.661 -65.1721
lclavicle 4.39563e-014 5.26779e-015
lhumerus -40.7391 18.9385 77.8629
lradius 44.2783
lwrist -0.574607
lhand -8.00904 -12.2998
lfingers 7.12502
lthumb 17.9001 16.8965
rfemur -11.8751 -1.63601 19.647
rtibia 31.7008
rfoot -21.1345 -11.1602
rtoes 16.4687
lfemur -11.3302 -0.377838 -21.7635
ltibia 28.2353
lfoot -22.2639 -2.28681
ltoes -26.7226
1207
root 0.882998 17.6589 -25.3017 3.67439 4.99542 -0.23207
lowerback 9.36499 2.52751 -3.14164
upperback 1.16472 3.07365 0.807205
thorax -4.24557 1.57927 2.20515
lowerneck -2.41083 13.2788 7.78025
upperneck 8.69668 18.0321 -6.61401
head 4.29926 8.90278 -2.22494
rclavicle 3.03395e-014 5.86415e-015
rhumerus -35.0138 -18.1628 -73.6098
rradius 34.5804
rwrist -0.99354
rhand -4.01934 -396.31
rfingers 7.12502
rthumb 21.7354 -65.1095
lclavicle 3.03395e-014 5.86415e-015
lhumerus -40.6266 18.8705 77.9214
lradius 44.3233
lwrist -0.569588
lhand -7.82242 -12.3707
lfingers 7.12502
lthumb 18.0797 16.809
rfemur -11.8509 -1.7027 19.6052
rtibia 31.7342
rfoot -21.1393 -11.2013
rtoes 16.1364
lfemur -11.2839 -0.377061 -21.8157
ltibia 28.2031
lfoot -22.2592 -2.27314
ltoes -26.6611
1208
root 0.885803 17.6544 -25.3025 3.64802 5.00602 -0.25117
lowerback 9.35734 2.53139 -3.13762
upperback 1.15908 3.07928 0.803632
thorax -4.24715 1.58207 2.19859
lowerneck -2.26179 13.2585 7.84872
upperneck 8.41628 18.0185 -6.8494
head 4.2162 8.89571 -2.32256
rclavicle 1.83876e-014 1.799e-014
rhumerus -35.0469 -18.1845 -73.5552
rradius 34.6031
rwrist -0.855314
rhand -4.07187 -396.314
rfingers 7.12502
rthumb 21.6849 -65.1197
lclavicle 1.83876e-014 1.799e-014
lhumerus -40.5605 18.8231 77.9667
lradius 44.3872
lwrist -0.527118
lhand -7.77123 -12.243
lfingers 7.12502
lthumb 18.1289 16.9322
rfemur -11.836 -1.75952 19.6196
rtibia 31.7557
rfoot -21.1774 -11.247
rtoes 16.1222
lfemur -11.2526 -0.447525 -21.7955
ltibia 28.1791
lfoot -22.2484 -2.33802
ltoes -26.1761
1209
root 0.888608 17.652 -25.3033 3.62478 5.02757 -0.326215
lowerback 9.33743 2.52998 -3.07118
upperback 1.14413 3.08454 0.799121
thorax -4.24822 1.58376 2.15637
lowerneck -2.28199 13.2523 7.45334
upperneck 8.2849 17.974 -6.40317
head 4.09951 8.8813 -2.15254
rclavicle 9.69075e-015 1.799e-014
rhumerus -35.0949 -18.2507 -73.4903
rradius 34.5672
rwrist -0.668322
rhand -4.10793 -396.24
rfingers 7.12502
rthumb 21.6503 -65.0495
lclavicle 9.69075e-015 1.799e-014
lhumerus -40.5135 18.7517 78.0086
lradius 44.4439
lwrist -0.51065
lhand -7.95089 -12.0669
lfingers 7.12502
lthumb 17.9561 17.1242
rfemur -11.8105 -1.79728 19.6939
rtibia 31.7336
rfoot -21.1578 -11.2624
rtoes 16.0027
lfemur -11.2525 -0.487358 -21.7228
ltibia 28.194
lfoot -22.2911 -2.31388
ltoes -26.12
1210
root 0.892079 17.654 -25.3042 3.57461 5.04683 -0.404539
lowerback 9.36367 2.55358 -2.98626
upperback 1.11927 3.12197 0.764694
thorax -4.28464 1.60127 2.06618
lowerneck -2.23584 13.2692 7.4709
upperneck 8.24331 17.9867 -6.31113
head 4.07325 8.89307 -2.13271
rclavicle 7.41715e-015 2.09718e-014
rhumerus -35.1739 -18.3902 -73.4209
rradius 34.4557
rwrist -0.543034
rhand -3.94788 -396.16
rfingers 7.12502
rthumb 21.804 -64.9513
lclavicle 7.41715e-015 2.09718e-014
lhumerus -40.4957 18.6451 78.0228
lradius 44.4971
lwrist -0.560079
lhand -8.21787 -11.963
lfingers 7.12502
lthumb 17.6992 17.2515
rfemur -11.7198 -1.81597 19.7675
rtibia 31.6625
rfoot -21.0466 -11.3553
rtoes 15.7814
lfemur -11.2275 -0.456123 -21.6587
ltibia 28.2429
lfoot -22.3142 -2.1831
ltoes -26.8025
